# xmcd
#
# Track frame offsets: 
#        150
#        8353
#        81145
#        98496
#        134508
#        161134
#        189372
#        216167
#        285948
#
# Disc length: 4157 seconds
#
# Revision: 0
# Processed by: cddbd v1.5.2PL0 Copyright (c) Steve Scherf et al.
# Submitted via: ExactAudioCopy v0.99pb4
#
DISCID=69103b09
DTITLE=Mermen - Live at The Independent
DYEAR=2008
DGENRE=Psychedelic Rock
TTITLE0=intro (film soundtrack)
TTITLE1=Jungle Rot > jam
TTITLE2=Ocean Beach
TTITLE3=The Goodbye
TTITLE4=Last Forever
TTITLE5=There is a Tear
TTITLE6=Unto the Resplendent
TTITLE7=Emmylou Rides Clarence West Then South
TTITLE8=To Be Naked and French is Always Hard
EXTD=
EXTT0=
EXTT1=
EXTT2=
EXTT3=
EXTT4=
EXTT5=
EXTT6=
EXTT7=
EXTT8=
PLAYORDER=
